<svg width="113" height="27" viewBox="0 0 113 27" fill="none" xmlns="http://www.w3.org/2000/svg">
<path d="M41.1741 21L36.1941 6.7H38.1341L41.6541 17.34L42.2141 19.26H42.2541C42.4808 18.4067 42.6675 17.7667 42.8141 17.34L46.2941 6.7H48.1741L43.1541 21H41.1741ZM47.1707 21L52.4307 6.7H54.4507L59.7307 21H57.7707L56.2507 16.64H50.5507L49.0107 21H47.1707ZM52.7707 10.38L51.0707 15.18H55.7507L54.1107 10.38L53.4707 8.36H53.4307C53.1774 9.16 52.9574 9.83333 52.7707 10.38ZM61.2795 21V6.7H63.0795V19.34H70.5795V21H61.2795ZM72.3537 21V6.7H74.6537L79.2937 18.58H79.3337L83.9337 6.7H86.2737V21H84.5537V9.24H84.5137C84.2603 9.98667 84.047 10.5867 83.8737 11.04L79.9537 21H78.5737L74.6537 11.04L74.0137 9.24H73.9737V21H72.3537ZM87.8152 21L93.0752 6.7H95.0952L100.375 21H98.4152L96.8952 16.64H91.1952L89.6552 21H87.8152ZM93.4152 10.38L91.7152 15.18H96.3952L94.7552 10.38L94.1152 8.36H94.0752C93.8219 9.16 93.6019 9.83333 93.4152 10.38ZM100.864 21L105.824 13.68L101.224 6.7H103.304L106.844 12.42H106.884L110.504 6.7H112.484L107.804 13.7L112.624 21H110.464L106.784 14.98H106.744L102.904 21H100.864Z" fill="white"/>
<path d="M13.4941 0C20.9498 0.000192648 26.9941 6.04427 26.9941 13.5C26.9941 20.9557 20.9498 26.9998 13.4941 27C10.0364 27 6.88258 25.6994 4.49414 23.5615C5.23892 23.2112 5.99071 22.8204 6.74023 22.3877C7.36738 22.0256 7.96983 21.6476 8.5459 21.2588C8.7843 21.4707 9.09737 21.6006 9.44141 21.6006C10.187 21.6006 10.791 20.9956 10.791 20.25C10.791 20.046 10.7451 19.853 10.6641 19.6797C11.3737 19.0954 12.0221 18.4984 12.6016 17.8984C16.8344 18.1687 20.1036 17.1766 20.876 15.1016L20.9268 14.9551C21.8996 11.7974 16.9121 7.4566 9.78711 5.26074C7.70826 4.6201 5.67687 4.23477 3.81836 4.08594C6.27092 1.56571 9.69974 0 13.4941 0ZM0 13.9121C1.0682 14.5708 2.27587 15.1872 3.5918 15.7334C3.59173 15.7389 3.5918 15.7445 3.5918 15.75C3.5918 16.4956 4.19584 17.1006 4.94141 17.1006C5.36181 17.1006 5.73678 16.9077 5.98438 16.6064C6.07723 16.636 6.17007 16.6674 6.26367 16.6963C8.001 17.2317 9.705 17.59 11.3027 17.7803C10.8772 18.1868 10.4184 18.5925 9.92773 18.9922C9.77671 18.9338 9.61304 18.9004 9.44141 18.9004C8.69597 18.9004 8.09201 19.5046 8.0918 20.25C8.0918 20.2851 8.09405 20.3201 8.09668 20.3545C7.50794 20.7559 6.88878 21.148 6.24023 21.5225C5.39653 22.0096 4.55245 22.4389 3.72266 22.8154C1.50047 20.4852 0.103414 17.3612 0 13.9121ZM2.97656 5.03516C4.94538 5.12226 7.17881 5.50353 9.49316 6.2168C12.9543 7.28351 15.8494 8.85907 17.7373 10.502C18.6823 11.3243 19.3386 12.1323 19.7041 12.8643C20.0662 13.5896 20.1178 14.1837 19.9707 14.6611C19.8234 15.1383 19.4466 15.5996 18.7393 15.9951C18.0252 16.3943 17.0281 16.6921 15.7842 16.8398C15.0733 16.9243 14.2973 16.9557 13.4707 16.9355C15.4787 14.5444 16.3254 12.2053 15.5137 10.5928L15.4404 10.457C13.7882 7.59559 7.21458 8.29767 0.757812 12.0254C0.512475 12.167 0.270979 12.3119 0.0332031 12.458C0.246916 9.65823 1.31477 7.09725 2.97656 5.03516ZM10.0068 9.76465C11.2525 9.63158 12.2911 9.69956 13.0762 9.92969C13.8542 10.1578 14.3244 10.5244 14.5742 10.957C14.8239 11.3897 14.9053 11.9798 14.7139 12.7676C14.5206 13.5624 14.0611 14.4958 13.3232 15.5078C12.9972 15.9549 12.6201 16.4083 12.2002 16.8652C10.455 16.7167 8.53575 16.3499 6.55762 15.7402C6.46655 15.7122 6.37641 15.6821 6.28613 15.6533C6.23631 14.9531 5.65431 14.4004 4.94141 14.4004C4.56176 14.4004 4.21891 14.5573 3.97363 14.8096C2.7929 14.3193 1.70919 13.7726 0.745117 13.1943C0.91387 13.0924 1.08496 12.9914 1.25781 12.8916C4.39431 11.0808 7.51843 10.0305 10.0068 9.76465Z" fill="white"/>
</svg>
